<?xml version="1.0" standalone="no"?>
<!DOCTYPE svg PUBLIC "-//W3C//DTD SVG 20010904//EN"
 "http://www.w3.org/TR/2001/REC-SVG-20010904/DTD/svg10.dtd">
<svg version="1.0" xmlns="http://www.w3.org/2000/svg"
 width="527.000000pt" height="527.000000pt" viewBox="0 0 527.000000 527.000000"
 preserveAspectRatio="xMidYMid meet">

<g transform="translate(0.000000,527.000000) scale(0.100000,-0.100000)"
fill="#000000" stroke="none">
<path d="M0 2635 l0 -2635 2635 0 2635 0 0 2635 0 2635 -2635 0 -2635 0 0
-2635z m4356 1188 c-18 -32 -65 -116 -106 -188 -41 -71 -75 -132 -78 -135 -2
-3 -407 -7 -899 -10 l-895 -5 -95 -165 c-114 -197 -275 -477 -443 -768 -99
-171 -126 -210 -136 -200 -10 11 -88 143 -192 326 l-24 43 110 192 c61 106
160 278 220 382 61 105 109 191 108 192 -1 1 -175 3 -386 4 -212 1 -411 5
-444 8 l-59 6 -78 135 c-79 136 -91 162 -65 141 10 -8 16 -9 21 -1 9 15 28 12
22 -4 -3 -8 1 -17 9 -20 9 -3 12 -1 9 4 -3 6 1 10 10 10 11 0 15 5 11 16 -3 8
-2 12 3 9 16 -9 24 15 11 30 -10 12 -9 15 8 15 37 0 33 17 -6 24 -65 10 -154
7 -146 -6 4 -7 3 -8 -4 -4 -7 4 -12 11 -12 17 0 5 674 9 1779 9 l1780 0 -33
-57z m-3482 -9 c3 -8 2 -12 -4 -9 -6 3 -10 10 -10 16 0 14 7 11 14 -7z m86
-14 c0 -5 -4 -10 -10 -10 -5 0 -10 5 -10 10 0 6 5 10 10 10 6 0 10 -4 10 -10z
m2090 -696 c0 -3 -28 -54 -62 -112 -34 -59 -136 -235 -226 -392 -538 -932
-595 -1030 -603 -1030 -9 0 -209 343 -216 370 -3 11 17 55 50 112 48 81 290
499 532 921 l80 137 222 0 c123 0 223 -3 223 -6z m887 -8 c-6 -16 -250 -444
-360 -631 -39 -66 -75 -123 -81 -127 -17 -12 -436 -10 -436 2 0 5 58 110 129
232 70 123 154 268 186 323 31 55 73 126 92 158 l34 57 221 0 c185 0 219 -2
215 -14z m-871 -783 c60 -98 204 -357 204 -369 0 -8 -57 -112 -126 -232 -69
-119 -185 -318 -257 -442 -246 -425 -280 -481 -287 -473 -20 23 -210 363 -210
376 0 16 98 190 344 609 47 81 86 154 86 162 0 9 -35 75 -77 148 -42 73 -87
151 -100 173 -12 22 -23 46 -23 53 0 9 50 12 218 12 196 0 218 -2 228 -17z"/>
<path d="M4210 3860 c-31 -7 -32 -7 -7 -9 26 -1 33 -18 13 -32 -12 -9 32 -31
47 -24 6 4 4 0 -6 -9 -13 -10 -17 -21 -12 -36 l7 -22 15 22 c12 17 17 19 24 9
7 -12 9 -12 9 0 0 8 6 19 13 25 8 6 24 28 36 49 l23 37 -64 -1 c-35 -1 -79 -5
-98 -9z"/>
<path d="M1068 3853 c7 -3 16 -2 19 1 4 3 -2 6 -13 5 -11 0 -14 -3 -6 -6z"/>
</g>
</svg>
